<svg viewBox="0 0 75 28" fill="none" xmlns="http://www.w3.org/2000/svg"><path fill-rule="evenodd" clip-rule="evenodd" d="M8.556 4.667A3.036 3.036 0 005.522 7.7c0 8.62 7.013 15.633 15.634 15.633a3.037 3.037 0 003.009-3.416l-5.39-1.236c-.108.205-.226.428-.333.635-.532 1.015-.917 1.753-1.9 1.357-3.856-1.353-7.005-4.503-8.376-8.407-.417-.916.377-1.33 1.382-1.856l.627-.328-1.237-5.39a3.036 3.036 0 00-.382-.025zm12.6 21c-9.908 0-17.967-8.06-17.967-17.967a5.372 5.372 0 017.106-5.077c.38.131.665.45.755.842l1.597 6.958c.089.383-.022.784-.295 1.069-.159.165-.162.169-1.609.926 1.171 2.536 3.207 4.565 5.692 5.697.759-1.448.763-1.453.929-1.611.285-.273.688-.38 1.069-.296l6.959 1.598c.39.09.71.374.84.753a5.311 5.311 0 01.29 1.74 5.373 5.373 0 01-5.366 5.368z" fill="#1D2123"/><path d="M43.72 23.24c-1.664 0-3.04-.504-4.128-1.512-1.072-1.008-1.608-2.288-1.608-3.84 0-2.08.895-3.56 2.688-4.44-1.168-.832-1.752-1.96-1.752-3.384 0-1.28.447-2.328 1.343-3.144.913-.832 2.065-1.248 3.456-1.248 1.408 0 2.553.416 3.432 1.248.896.816 1.344 1.864 1.344 3.144 0 1.44-.575 2.568-1.727 3.384 1.776.88 2.663 2.36 2.663 4.44 0 1.552-.535 2.832-1.607 3.84-1.056 1.008-2.424 1.512-4.105 1.512zm0-1.968c1.12 0 2-.32 2.64-.96.656-.64.983-1.448.983-2.424 0-.992-.328-1.808-.984-2.448-.64-.64-1.52-.96-2.64-.96-1.087 0-1.968.328-2.64.984-.672.64-1.008 1.448-1.008 2.424 0 .96.337 1.768 1.009 2.424.672.64 1.552.96 2.64.96zm0-8.64c.831 0 1.495-.24 1.992-.72a2.452 2.452 0 00.743-1.8c0-.736-.247-1.336-.743-1.8-.48-.464-1.145-.696-1.993-.696-.816 0-1.48.24-1.992.72-.511.464-.767 1.056-.767 1.776 0 .688.255 1.28.767 1.776.513.496 1.177.744 1.992.744zM54.334 23H52.03l7.944-15.024h-8.712V5.96h11.184v1.728L54.334 23zm17.79-1.392c-1.089 1.088-2.457 1.632-4.105 1.632-1.648 0-3.024-.544-4.128-1.632-1.104-1.088-1.656-2.416-1.656-3.984 0-.832.16-1.576.48-2.232.336-.672.816-1.376 1.44-2.112l6.216-7.32h2.616l-5.208 6.168c.288-.032.512-.048.672-.048 1.424 0 2.664.544 3.72 1.632 1.072 1.088 1.608 2.376 1.608 3.864 0 1.584-.552 2.928-1.656 4.032zm-4.105-.36c1.024 0 1.888-.36 2.592-1.08a3.576 3.576 0 001.056-2.592 3.576 3.576 0 00-1.056-2.592c-.704-.72-1.568-1.08-2.592-1.08-1.04 0-1.912.36-2.616 1.08-.704.704-1.056 1.568-1.056 2.592s.352 1.896 1.056 2.616c.704.704 1.576 1.056 2.616 1.056z" fill="#1D2123"/></svg>