<svg width="43" height="19" fill="none" xmlns="http://www.w3.org/2000/svg"><path fill-rule="evenodd" clip-rule="evenodd" d="M5.909 3.889c.783.066 1.567-.397 2.056-.983.482-.603.8-1.413.719-2.239-.694.033-1.55.463-2.04 1.066-.45.52-.833 1.363-.735 2.156zm9.32 10.64V1.65h4.773c2.465 0 4.186 1.718 4.186 4.23 0 2.51-1.754 4.245-4.251 4.245h-2.734v4.403h-1.975zM8.674 4.045c-.69-.04-1.32.21-1.828.412-.328.13-.605.24-.816.24-.236 0-.525-.116-.849-.246-.425-.171-.91-.366-1.42-.357-1.166.017-2.251.686-2.847 1.751-1.224 2.132-.318 5.287.865 7.022.58.859 1.273 1.8 2.187 1.768.402-.016.691-.14.99-.269.345-.148.703-.302 1.262-.302.54 0 .882.15 1.21.294.313.137.613.268 1.059.26.946-.017 1.542-.86 2.121-1.718.626-.922.9-1.822.942-1.959l.005-.015c-.001-.002-.009-.005-.022-.011-.21-.097-1.807-.838-1.822-2.823-.016-1.666 1.267-2.51 1.469-2.643l.024-.017c-.816-1.222-2.089-1.354-2.53-1.387zm19.12 10.581c1.24 0 2.391-.636 2.914-1.644h.04v1.545h1.828v-6.41c0-1.859-1.468-3.056-3.729-3.056-2.097 0-3.648 1.214-3.705 2.882h1.78c.146-.793.872-1.313 1.868-1.313 1.208 0 1.885.57 1.885 1.62v.71l-2.464.148c-2.293.14-3.534 1.09-3.534 2.743 0 1.668 1.281 2.775 3.117 2.775zm.53-1.528c-1.052 0-1.721-.512-1.721-1.297 0-.81.645-1.28 1.877-1.355l2.195-.14v.727c0 1.206-1.012 2.065-2.35 2.065zm10.316 1.933c-.792 2.255-1.698 2.998-3.624 2.998-.147 0-.636-.016-.75-.049v-1.545c.122.017.424.033.579.033.873 0 1.363-.371 1.665-1.338l.18-.57-3.347-9.376h2.065l2.326 7.608h.04L40.1 5.184h2.008l-3.468 9.847zM17.203 3.335h2.277c1.713 0 2.693.925 2.693 2.553 0 1.627-.98 2.56-2.701 2.56h-2.27V3.335z" fill="#000"/></svg>