<svg width="82" height="56" fill="none" xmlns="http://www.w3.org/2000/svg"><path d="M9.796 22.779c1.878-.588 4.12-.95 6.293-.95 3.984 0 7.018 1.244 7.018 3.645 0 1.538-1.04 2.67-2.851 3.894 2.739.248 4.64 1.426 4.64 3.825 0 3.917-5.977 5.795-11.002 5.795-1.11 0-2.174-.09-3.125-.271l-.973-15.938zm4.957 6.09c1.856-.046 3.419-.951 3.419-2.129 0-1.02-.928-1.539-2.174-1.539a3.4 3.4 0 00-1.539.363l.294 3.304zm.792 6.407c2.037-.046 3.848-.816 3.848-2.083 0-.95-.883-1.313-2.105-1.313-.746 0-1.517.135-2.06.385l.317 3.01zm9.804.329l.263-3.422 1.579.094.282-6.972h-1.504l-.113-3.289 8.044-.338-.075 3.627h-1.86l-.508 7.292 1.353.075-.244 3.664-7.217-.731zm9.169-6.578c0-4.06 2.95-7.575 6.84-7.575 3.966 0 6.88 3.364 6.88 7.518 0 3.946-3.027 7.462-6.936 7.462-3.87-.002-6.784-3.403-6.784-7.405zm9.529.225c0-1.748-1.015-3.233-2.594-3.233-1.692 0-2.876 1.541-2.876 3.29 0 1.785.883 3.195 2.82 3.195 1.691-.001 2.65-1.524 2.65-3.252zm5.821 7.084l-.357-13.795c1.372-.545 2.932-.733 4.547-.733 3.721 0 6.447 1.541 6.447 4.435 0 3.364-2.35 5.713-6.954 5.92l.131 4.19-3.814-.017zm3.59-7.272c.17.019.339.019.489.019 2.049 0 3.213-1.11 3.213-2.105 0-.79-.733-1.504-2.33-1.504a4.61 4.61 0 00-1.467.225l.095 3.365zm8.062 7.554l-.734-14.246 9.078-.884.075 4.548-5.675.433.075 1.673 4.642-.414.169 2.632-4.623.489.075 1.88 5.356-.659.263 3.176-8.702 1.372zm12.289-.488l.094-10.299-3.064.075-.376-3.476 10.881-.677.019 3.758-2.989.132-.62 10.881-3.945-.395z" fill="#0074A3"/><path d="M21.209 50.434c1.224 1.063 2.54 1.502 3.672 1.502 1.755 0 3.14-.831 3.14-2.102 0-2.217-8.775-.254-8.775-6.35 0-4.203 5.126-5.844 8.73-5.844 1.478 0 3.025.254 4.503.855l-1.593 4.087a6.547 6.547 0 00-3.28-.878c-1.754 0-3.187.74-3.187 1.825 0 2.332 9.192-.093 9.192 6.813 0 3.349-3.833 5.658-7.922 5.658-2.448 0-4.988-.831-6.835-2.771l2.355-2.794zm22.009 4.828l.347-6.79-3.464.762.16 6.374-4.364-.185-1.248-16.56 5.174-.647.161 6.56 3.765-.116.346-6.79 4.827.3-.484 17.321-5.22-.23zm7.114-8.384c0-4.989 3.627-9.308 8.407-9.308 4.872 0 8.452 4.134 8.452 9.238 0 4.85-3.718 9.17-8.522 9.17-4.757 0-8.337-4.18-8.337-9.1zm11.708.278c0-2.149-1.247-3.973-3.187-3.973-2.079 0-3.534 1.893-3.534 4.041 0 2.194 1.085 3.926 3.464 3.926 2.08 0 3.257-1.87 3.257-3.994zm6.743 8.706l-.44-16.952c1.687-.67 3.603-.9 5.59-.9 4.574 0 7.922 1.893 7.922 5.45 0 4.133-2.886 7.02-8.545 7.274l.162 5.15-4.69-.022zm4.412-8.937c.208.023.416.023.6.023 2.518 0 3.949-1.363 3.949-2.588 0-.97-.901-1.847-2.864-1.847-.624 0-1.27.092-1.802.276l.117 4.136z" fill="#00B9ED"/><path d="M12.854 50.816a1.084 1.084 0 01-.13-.584c.042-.541.072-1.084.142-1.62.085-.654.448-1.13 1.047-1.399.545-.245 1.094-.208 1.62.08.426.236.85.476 1.272.72.7.402.796 1.333.193 1.858a1.05 1.05 0 01-.594.264 2.46 2.46 0 00-1.006.298c-.26.15-.474.347-.666.574a1.134 1.134 0 01-1.75-.009c-.047-.057-.087-.12-.128-.182zm-1.17-4.067c-.175-.364-.211-.786.037-1.197a.965.965 0 011.112-.423c.67.19 1.094.936.913 1.61-.176.656-.871.95-1.476.626-.242-.132-.426-.32-.586-.616zm4.028-1.639c.184.393.207.782.001 1.166-.309.576-.987.685-1.47.243-.453-.413-.516-1.17-.136-1.634a.91.91 0 011.34-.105c.05.045.098.093.14.145.046.058.085.125.125.184zm-3.29 2.822c.147.303.176.619-.01.929a.878.878 0 01-.912.393 1.139 1.139 0 01-.86-.65c-.196-.404-.122-.871.24-1.138a.886.886 0 01.74-.145c.355.076.618.282.802.61zm4.778-.362c-.42.223-.908.07-1.146-.342a1.168 1.168 0 01.242-1.435.85.85 0 011.269.149c.353.491.233 1.224-.258 1.57-.032.023-.071.04-.108.058z" fill="#00B5A4"/><path d="M7.557 21.486L0 7.01l9.25 2.546L11.93.369l7.293 7.162L25.965 0l1.375 17.115-19.783 4.37zM5.045 11.083l3.888 7.449 15.648-3.456-.712-8.855-4.525 5.055-6.141-6.031-2.185 7.481-5.973-1.643z" fill="#FFC114"/></svg>