<svg width="40" height="40" viewBox="0 0 40 40" fill="none" xmlns="http://www.w3.org/2000/svg">
<path fill-rule="evenodd" clip-rule="evenodd" d="M31.6673 30C31.6673 30.92 30.9207 31.6667 30.0007 31.6667C29.0807 31.6667 28.334 30.92 28.334 30C28.334 29.08 29.0807 28.3333 30.0007 28.3333C30.9207 28.3333 31.6673 29.08 31.6673 30ZM20.0007 25H6.66732L6.69398 8.33333H25.0006L24.974 25H20.0007ZM11.6673 30C11.6673 30.92 10.9207 31.6667 10.0007 31.6667C9.08065 31.6667 8.33398 30.92 8.33398 30C8.33398 29.08 9.08065 28.3333 10.0007 28.3333C10.9207 28.3333 11.6673 29.08 11.6673 30ZM33.334 20.8V25H28.334V16.8017L33.334 20.8ZM36.0423 18.6983L28.334 12.5317V8.33333C28.334 6.495 26.979 5 25.3123 5H6.35398C4.68898 5 3.33398 6.495 3.33398 8.33333V25C3.33398 26.455 4.18898 27.6817 5.36898 28.1367C5.13565 28.7133 5.00065 29.34 5.00065 30C5.00065 32.7567 7.24398 35 10.0007 35C12.7573 35 15.0007 32.7567 15.0007 30C15.0007 29.4117 14.8807 28.8567 14.6923 28.3333H20.0007H25.309C25.1207 28.8567 25.0007 29.4117 25.0007 30C25.0007 32.7567 27.244 35 30.0007 35C32.7573 35 35.0007 32.7567 35.0007 30C35.0007 29.4117 34.8807 28.8567 34.6923 28.3333H35.0007C35.9223 28.3333 36.6673 27.5883 36.6673 26.6667V20C36.6673 19.4933 36.4373 19.015 36.0423 18.6983Z" fill="#F2994A"/>
</svg>
