<svg width="40" height="40" viewBox="0 0 40 40" fill="none" xmlns="http://www.w3.org/2000/svg">
<path fill-rule="evenodd" clip-rule="evenodd" d="M18.334 25.7142H11.6673C10.7507 25.7142 10.0007 24.8571 10.0007 23.8095C10.0007 22.7619 10.7507 21.9047 11.6673 21.9047H18.334C19.2507 21.9047 20.0007 22.7619 20.0007 23.8095C20.0007 24.8571 19.2507 25.7142 18.334 25.7142ZM28.334 25.7142H25.0007C24.084 25.7142 23.334 24.8571 23.334 23.8095C23.334 22.7619 24.084 21.9047 25.0007 21.9047H28.334C29.2507 21.9047 30.0007 22.7619 30.0007 23.8095C30.0007 24.8571 29.2507 25.7142 28.334 25.7142ZM33.334 27.619C33.334 28.6685 32.5873 29.5238 31.6673 29.5238H8.33398C7.41398 29.5238 6.66732 28.6685 6.66732 27.619V18.0952H33.334V27.619ZM6.66732 12.3809C6.66732 11.3314 7.41398 10.4761 8.33398 10.4761H31.6673C32.5873 10.4761 33.334 11.3314 33.334 12.3809V14.2857H6.66732V12.3809ZM31.6673 6.66663H8.33398C5.57732 6.66663 3.33398 9.23044 3.33398 12.3809V27.619C3.33398 30.7695 5.57732 33.3333 8.33398 33.3333H31.6673C34.424 33.3333 36.6673 30.7695 36.6673 27.619V12.3809C36.6673 9.23044 34.424 6.66663 31.6673 6.66663Z" fill="#F2994A"/>
</svg>
