<svg width="40" height="40" viewBox="0 0 40 40" fill="none" xmlns="http://www.w3.org/2000/svg">
<path fill-rule="evenodd" clip-rule="evenodd" d="M11.4528 21.333H20.0011C20.4744 21.333 20.9261 21.5346 21.2411 21.8863C21.5561 22.238 21.7078 22.708 21.6578 23.178L20.9094 30.0946L28.5494 18.6663H20.0011C19.5278 18.6663 19.0761 18.4646 18.7611 18.113C18.4444 17.7613 18.2928 17.2913 18.3444 16.8213L19.0928 9.90631L11.4528 21.333ZM18.5194 38.333C18.3294 38.333 18.1378 38.3013 17.9494 38.233C17.2294 37.9696 16.7794 37.2496 16.8628 36.488L18.1444 24.6663H8.33442C7.71942 24.6663 7.15442 24.328 6.86442 23.7863C6.57442 23.243 6.60775 22.5846 6.94942 22.073L20.0978 2.40798C20.5228 1.76798 21.3294 1.50464 22.0511 1.76798C22.7728 2.02964 23.2228 2.75131 23.1394 3.51298L21.8578 15.333H31.6678C32.2828 15.333 32.8478 15.673 33.1378 16.2146C33.4278 16.758 33.3944 17.4146 33.0528 17.9263L19.9044 37.593C19.5894 38.0663 19.0628 38.333 18.5194 38.333Z" fill="#F2994A"/>
</svg>
