<svg width="42" height="18" fill="none" xmlns="http://www.w3.org/2000/svg"><path fill-rule="evenodd" clip-rule="evenodd" d="M19.217 14.263V9.23h2.599c1.065 0 1.964-.357 2.696-1.061l.176-.178a3.625 3.625 0 00-.176-5.075 3.709 3.709 0 00-2.696-1.08h-4.171v12.428h1.572zm0-6.56V3.36h2.639a2.13 2.13 0 011.504.615c.85.832.87 2.22.05 3.082a2.044 2.044 0 01-1.554.644h-2.638zm12.808-1.28c-.674-.624-1.592-.94-2.755-.94-1.495 0-2.618.554-3.36 1.654l1.387.882c.508-.753 1.201-1.13 2.08-1.13.557 0 1.095.209 1.515.585.41.357.645.872.645 1.418v.366c-.606-.337-1.368-.515-2.306-.515-1.094 0-1.974.258-2.628.783-.655.525-.987 1.219-.987 2.101-.02.803.323 1.566.928 2.081.616.556 1.397.833 2.316.833 1.084 0 1.944-.486 2.598-1.457h.069v1.18h1.504V9.02c0-1.1-.332-1.972-1.006-2.596zm-4.269 6.274a1.292 1.292 0 01-.518-1.04c0-.466.215-.853.635-1.16.43-.307.968-.466 1.603-.466.88-.01 1.563.189 2.052.585 0 .674-.264 1.259-.782 1.754a2.482 2.482 0 01-1.769.744c-.44.01-.87-.139-1.22-.417zM36.411 18l5.256-12.24h-1.71l-2.432 6.105h-.03l-2.49-6.105h-1.71l3.448 7.958L34.79 18h1.621z" fill="#3C4043"/><path d="M13.786 8.137c0-.485-.04-.97-.117-1.447H7.034v2.746h3.8a3.308 3.308 0 01-1.406 2.17v1.784h2.266c1.329-1.239 2.09-3.072 2.09-5.253z" fill="#4285F4"/><path d="M7.036 15.115c1.895 0 3.497-.634 4.66-1.725l-2.267-1.784c-.635.437-1.446.684-2.393.684-1.837 0-3.39-1.258-3.947-2.943H.754v1.843a7.016 7.016 0 006.282 3.925z" fill="#34A853"/><path d="M3.09 9.347a4.365 4.365 0 010-2.735V4.778H.755a7.166 7.166 0 000 6.403L3.09 9.347z" fill="#FBBC04"/><path d="M7.036 3.668a3.756 3.756 0 012.696 1.07l2.012-2.041A6.736 6.736 0 007.036.843C4.378.843 1.946 2.37.754 4.778l2.335 1.843c.557-1.694 2.11-2.953 3.947-2.953z" fill="#EA4335"/></svg>