<svg width="38" height="24" fill="none" xmlns="http://www.w3.org/2000/svg"><path fill-rule="evenodd" clip-rule="evenodd" d="M18.914 20.595a11.252 11.252 0 01-7.377 2.748C5.256 23.343.164 18.192.164 11.838.164 5.484 5.256.333 11.537.333c2.815 0 5.391 1.035 7.377 2.748A11.251 11.251 0 0126.291.333c6.281 0 11.373 5.151 11.373 11.505 0 6.354-5.092 11.505-11.373 11.505a11.251 11.251 0 01-7.377-2.748z" fill="#ED0006"/><path fill-rule="evenodd" clip-rule="evenodd" d="M18.914 20.595a11.535 11.535 0 003.996-8.757c0-3.506-1.55-6.646-3.996-8.757A11.251 11.251 0 0126.291.333c6.281 0 11.373 5.151 11.373 11.505 0 6.354-5.092 11.505-11.373 11.505a11.251 11.251 0 01-7.377-2.748z" fill="#F9A000"/><path fill-rule="evenodd" clip-rule="evenodd" d="M18.914 3.081a11.534 11.534 0 013.996 8.757c0 3.506-1.55 6.646-3.996 8.756a11.534 11.534 0 01-3.996-8.756c0-3.507 1.55-6.647 3.996-8.757z" fill="#FF5E00"/></svg>