<svg width="40" height="40" viewBox="0 0 40 40" fill="none" xmlns="http://www.w3.org/2000/svg">
<path fill-rule="evenodd" clip-rule="evenodd" d="M11.6677 18.3321C11.6677 17.4121 12.4143 16.6654 13.3343 16.6654C14.2543 16.6654 15.001 17.4121 15.001 18.3321C15.001 19.2521 14.2543 19.9987 13.3343 19.9987C12.4143 19.9987 11.6677 19.2521 11.6677 18.3321ZM20.001 16.6654C19.081 16.6654 18.3343 17.4121 18.3343 18.3321C18.3343 19.2521 19.081 19.9987 20.001 19.9987C20.921 19.9987 21.6677 19.2521 21.6677 18.3321C21.6677 17.4121 20.921 16.6654 20.001 16.6654ZM26.6677 16.6654C25.7477 16.6654 25.001 17.4121 25.001 18.3321C25.001 19.2521 25.7477 19.9987 26.6677 19.9987C27.5877 19.9987 28.3343 19.2521 28.3343 18.3321C28.3343 17.4121 27.5877 16.6654 26.6677 16.6654ZM33.165 20.4902C32.32 25.9136 27.9483 30.4119 22.5333 31.4269C19.9183 31.9202 17.255 31.6386 14.8383 30.6152C14.1533 30.3252 13.445 30.1786 12.75 30.1786C12.4333 30.1786 12.12 30.2086 11.8117 30.2702L7.12498 31.2069L8.06332 26.5119C8.25998 25.5369 8.13998 24.4936 7.71832 23.4952C6.69498 21.0786 6.41498 18.4169 6.90665 15.8002C7.92165 10.3852 12.4183 6.01358 17.8433 5.16858C22.16 4.49691 26.3817 5.85691 29.4283 8.90358C32.4767 11.9519 33.8383 16.1752 33.165 20.4902ZM31.7866 6.54691C27.9783 2.74024 22.7117 1.04191 17.33 1.87358C10.535 2.93358 4.90165 8.40691 3.62998 15.1852C3.01665 18.4486 3.36998 21.7719 4.64832 24.7936C4.80998 25.1786 4.85998 25.5369 4.79665 25.8586L3.36665 33.0052C3.25665 33.5519 3.42832 34.1169 3.82332 34.5102C4.13832 34.8269 4.56332 34.9986 5.00165 34.9986C5.10998 34.9986 5.21832 34.9886 5.32832 34.9669L12.4667 33.5386C12.8767 33.4602 13.2733 33.5752 13.5383 33.6852C16.5633 34.9636 19.8867 35.3152 23.1467 34.7036C29.9267 33.4319 35.4 27.7986 36.46 21.0036C37.2966 15.6252 35.595 10.3552 31.7866 6.54691Z" fill="#F2994A"/>
</svg>
