<svg width="42" height="14" fill="none" xmlns="http://www.w3.org/2000/svg"><path fill-rule="evenodd" clip-rule="evenodd" d="M10.709 13.097H7.175l-2.65-10.11c-.126-.464-.393-.876-.786-1.07A11.55 11.55 0 00.5.848V.459h5.693c.785 0 1.375.585 1.473 1.264L9.04 9.015 12.573.458h3.436l-5.3 12.64zm7.264 0h-3.337L17.384.458h3.337l-2.748 12.64zm7.066-9.137c.098-.68.687-1.07 1.375-1.07 1.08-.098 2.257.098 3.24.583l.588-2.721A8.448 8.448 0 0027.2.167c-3.24 0-5.597 1.75-5.597 4.18 0 1.849 1.67 2.82 2.848 3.404 1.275.583 1.767.972 1.668 1.555 0 .875-.982 1.264-1.962 1.264-1.179 0-2.357-.292-3.436-.778l-.59 2.722c1.18.486 2.454.681 3.633.681 3.632.096 5.89-1.653 5.89-4.278 0-3.306-4.615-3.5-4.615-4.957zm16.294 9.137L38.683.458h-2.846c-.59 0-1.179.39-1.375.973l-4.907 11.666h3.436l.685-1.846h4.222l.392 1.846h3.043zm-5.005-9.235l.98 4.764H34.56l1.768-4.764z" fill="#172B85"/></svg>